# xmcd
#
# Track frame offsets:
#	150
#	2877
#	21745
#	38215
#	56442
#	72922
#	87355
#	104485
#	128057
#	146882
#	160965
#	183640
#
# Disc length: 2802 seconds
#
# Revision: 0
# Processed by: cddbd v1.5.1PL0 Copyright (c) Steve Scherf et al.
# Submitted via: audiograbber 1.83.01
#
DISCID=af0af00c
DTITLE=Ömür Göksel - Bir Ömür
DYEAR=1998
DGENRE=Pop-Folk
TTITLE0=Müzik
TTITLE1=Yalanmis
TTITLE2=Isterdim
TTITLE3=Cizgi Film Prensesim
TTITLE4=Doymam Askina
TTITLE5=Öksüz Istanbul
TTITLE6=Resim
TTITLE7=Sevemem Artik
TTITLE8=Tiryaki
TTITLE9=Icki Sigara
TTITLE10=Yaniyorum
TTITLE11=Bitti
EXTD=
EXTT0=
EXTT1=
EXTT2=
EXTT3=
EXTT4=
EXTT5=
EXTT6=
EXTT7=
EXTT8=
EXTT9=
EXTT10=
EXTT11=
PLAYORDER=
